# xmcd
#
# Track frame offsets:
# 150
# 17157
# 26143
# 35129
#
# Disc length: 714 seconds
#
# Revision: 0
# Processed by: cddbd v1.5.2PL0 Copyright (c) Steve Scherf et al.
# Submitted via: Audion 3.0.2 (http://www.panic.com/audion/)
#
DISCID=2f02c804
DTITLE=Seal - The Acoustic Session
DYEAR=1900
DGENRE=
TTITLE0=Deep Water
TTITLE1=Show Me
TTITLE2=Whirlpool
TTITLE3=Violet
EXTD=
EXTT0=
EXTT1=
EXTT2=
EXTT3=
PLAYORDER=
